Coordinates
version=1
nRows=9
nColumns=63
inDegrees=yes

Units are S.I. units (second, meters, Newtons, ...)
If the header above contains a line with 'inDegrees', this indicates whether rotational values are in degrees (yes) or radians (no).

endheader
time	pelvis_tilt	pelvis_list	pelvis_rotation	pelvis_tx	pelvis_ty	pelvis_tz	hip_flexion_r	hip_adduction_r	hip_rotation_r	knee_angle_r	knee_angle_r_beta	ankle_angle_r	subtalar_angle_r	mtp_angle_r	hip_flexion_l	hip_adduction_l	hip_rotation_l	knee_angle_l	knee_angle_l_beta	ankle_angle_l	subtalar_angle_l	mtp_angle_l	L5_S1_Flex_Ext	L5_S1_Lat_Bending	L5_S1_axial_rotation	L4_L5_Flex_Ext	L4_L5_Lat_Bending	L4_L5_axial_rotation	L3_L4_Flex_Ext	L3_L4_Lat_Bending	L3_L4_axial_rotation	L2_L3_Flex_Ext	L2_L3_Lat_Bending	L2_L3_axial_rotation	L1_L2_Flex_Ext	L1_L2_Lat_Bending	L1_L2_axial_rotation	L1_T12_Flex_Ext	L1_T12_Lat_Bending	L1_T12_axial_rotation	Abs_r3	Abs_r2	Abs_r1	Abs_t1	Abs_t2	neck_flexion	neck_bending	neck_rotation	arm_flex_r	arm_add_r	arm_rot_r	elbow_flex_r	pro_sup_r	wrist_flex_r	wrist_dev_r	arm_flex_l	arm_add_l	arm_rot_l	elbow_flex_l	pro_sup_l	wrist_flex_l	wrist_dev_l
      0.03333333	      5.33646756	     -2.93864089	   -183.15822757	      2.55507910	      0.88602183	      0.66592571	     13.92898528	     -5.29914589	    -11.53799877	     25.21213605	      0.44003479	     24.64724238	     -2.19684636	      0.00000000	      7.95341414	     -0.32353143	    -10.33019499	     16.57616545	      0.28930866	     17.46169501	    -10.51489474	      0.00000000	      0.00155826	     -0.44494849	      0.33530367	      0.00289385	     -0.59178149	      0.35626015	      0.00256007	     -1.08184776	      0.35626015	      0.00178094	     -1.08184776	      0.29339071	      0.00144700	     -0.90733896	      0.27243423	      0.00089039	     -0.68922521	      0.25147775	      0.01113051	     -5.03334632	      1.86485840	      0.00000000	      0.00000000	      0.00000000	      0.00000000	      0.00000001	     -4.46946568	    -11.28395756	     40.42682196	     23.78368006	     60.33239192	      0.00000000	      4.85042178	    -13.01786866	     -0.84844014	    -23.55621878	     24.20960000	     50.82109510	      0.00000000	      4.85042178
      0.06666667	      5.79659807	     -2.20406976	   -184.26305621	      2.55524902	      0.88656331	      0.66877594	     15.04578962	     -5.11789476	    -11.82655696	     25.78683509	      0.45006518	     24.88628959	      0.23634763	      0.00000000	      8.09230854	     -0.34554609	     -6.12932809	     15.98492469	      0.27898957	     16.95259500	    -14.94199468	      0.00000000	      0.00157700	     -0.33676992	      0.13271837	      0.00292865	     -0.44790400	      0.14101327	      0.00259086	     -0.81882239	      0.14101327	      0.00180236	     -0.81882239	      0.11612858	      0.00146440	     -0.68674122	      0.10783368	      0.00090110	     -0.52165661	      0.09953878	      0.01126437	     -3.80960871	      0.73813977	      0.00000000	      0.00000000	      0.00000000	      0.00000000	      0.00000001	     -4.82156558	    -10.44088588	     31.57434873	     23.34695281	     57.32905824	      0.00000000	      4.88272536	    -14.04702336	     -3.15144880	     -8.15320546	     23.10706113	     55.35543079	      0.00000000	      4.88272536
      0.10000000	      6.22373284	     -1.67721076	   -185.04881485	      2.55545494	      0.88690127	      0.67094750	     16.00568432	     -4.95432640	    -11.90036458	     26.24685737	      0.45809408	     24.95511916	      1.68724785	      0.00000000	      8.28377049	     -0.52971287	     -4.07367968	     15.58541669	      0.27201684	     17.14954667	    -16.49348132	      0.00000000	     -0.00046226	     -0.26301488	     -0.05160598	     -0.00085846	     -0.34980979	     -0.05483135	     -0.00075945	     -0.63949438	     -0.05483135	     -0.00052832	     -0.63949438	     -0.04515523	     -0.00042926	     -0.53633995	     -0.04192986	     -0.00026414	     -0.40741005	     -0.03870448	     -0.00330188	     -2.97527694	     -0.28701697	      0.00000000	      0.00000000	      0.00000000	      0.00000000	      0.00000000	     -5.04575309	     -9.69735141	     24.12932256	     23.47582846	     55.20185522	      0.00000000	      4.90239216	    -14.85039789	     -4.97055552	      3.61584542	     23.64961893	     58.45883822	      0.00000000	      4.90239216
      0.13333333	      6.53840862	     -1.21006261	   -185.71960882	      2.55541444	      0.88720795	      0.67179930	     16.54938883	     -4.51189826	    -11.44610933	     26.27953942	      0.45866449	     24.83401922	      2.20907448	      0.00000000	      8.42857575	     -0.89918605	     -3.49478005	     15.32395018	      0.26745339	     17.68691157	    -16.83029424	      0.00000000	     -0.00117019	     -0.20977554	     -0.14245634	     -0.00217316	     -0.27900147	     -0.15135986	     -0.00192250	     -0.51004824	     -0.15135986	     -0.00133741	     -0.51004824	     -0.12464930	     -0.00108664	     -0.42777428	     -0.11574577	     -0.00066865	     -0.32494231	     -0.10684225	     -0.00835854	     -2.37302285	     -0.79229941	      0.00000000	      0.00000000	      0.00000000	      0.00000000	      0.00000000	     -5.13991462	     -9.30428114	     19.85713815	     23.82590979	     54.22327841	      0.00000000	      4.92104372	    -15.15537479	     -6.18712989	     11.36434224	     24.12893255	     59.99471583	      0.00000000	      4.92104372
      0.16666667	      6.76962328	     -1.02755385	   -185.97621165	      2.55539433	      0.88738780	      0.67214691	     16.84080156	     -4.30067668	    -11.18730319	     26.18764750	      0.45706067	     24.71574588	      2.41491747	      0.00000000	      8.62980649	     -1.01465488	     -3.40388057	     15.13769759	      0.26420266	     17.95860335	    -16.97143938	      0.00000000	     -0.00076735	     -0.19824777	     -0.23081330	     -0.00142505	     -0.26366953	     -0.24523913	     -0.00126068	     -0.48201962	     -0.24523913	     -0.00087701	     -0.48201962	     -0.20196163	     -0.00071256	     -0.40426684	     -0.18753580	     -0.00043846	     -0.30708579	     -0.17310997	     -0.00548111	     -2.24261838	     -1.28371430	      0.00000000	      0.00000000	      0.00000000	      0.00000000	      0.00000000	     -4.82525014	     -9.44137692	     19.86382651	     23.87602135	     54.23555898	      0.00000000	      4.92146262	    -15.59278799	     -6.16019663	     11.50911586	     24.35338589	     60.00664349	      0.00000000	      4.92146262
      0.20000000	      6.87496753	     -0.67564328	   -185.82823642	      2.55508009	      0.88759343	      0.67192672	     16.59146641	     -3.58203850	    -10.18230877	     25.46791406	      0.44449895	     24.20044547	      0.71135983	      0.00000000	      8.72362923	     -1.25934899	     -2.65365737	     14.97956254	      0.26144269	     17.92682111	    -17.58087531	      0.00000000	     -0.00218032	     -0.17447476	     -0.33395785	     -0.00404908	     -0.23205142	     -0.35483022	     -0.00358205	     -0.42421792	     -0.35483022	     -0.00249189	     -0.42421792	     -0.29221312	     -0.00202465	     -0.35578892	     -0.27134076	     -0.00124584	     -0.27026140	     -0.25046839	     -0.01557382	     -1.97369333	     -1.85737340	      0.00000000	      0.00000000	      0.00000000	      0.00000000	      0.00000000	     -3.54453892	    -10.81907444	     28.24640643	     23.32578770	     56.54678622	      0.00000000	      4.93832142	    -15.92329554	     -6.50651656	     13.30313296	     24.85542218	     59.71608755	      0.00000000	      4.93832142
      0.23333333	      6.93543594	     -0.47228350	   -185.75062228	      2.55476443	      0.88761893	      0.67131742	     16.17201054	     -3.12635313	     -9.85289001	     24.60533429	      0.42944410	     23.96508041	      0.36032436	      0.00000000	      8.81513039	     -1.40126190	     -2.26825599	     14.92390084	      0.26047121	     17.93016471	    -17.66625267	      0.00000000	     -0.00254135	     -0.16162709	     -0.35030361	     -0.00471955	     -0.21496404	     -0.37219758	     -0.00417519	     -0.39298012	     -0.37219758	     -0.00290451	     -0.39298012	     -0.30651566	     -0.00235990	     -0.32958997	     -0.28462168	     -0.00145213	     -0.25036037	     -0.26272771	     -0.01815264	     -1.82835802	     -1.94828358	      0.00000000	      0.00000000	      0.00000000	      0.00000000	      0.00000000	     -3.28429496	    -11.20536036	     29.72527208	     23.37511256	     56.82717108	      0.00000000	      4.94126539	    -15.99876978	     -6.43475125	     13.03731623	     24.70933668	     59.39897470	      0.00000000	      4.94126539
      0.26666667	      6.90057946	     -0.26890683	   -185.05044936	      2.55444504	      0.88756855	      0.67106396	     15.45673651	     -2.20775583	     -7.35058929	     23.31809769	      0.40697758	     22.89494839	     -4.29274404	      0.00000000	      8.95435904	     -1.42559647	     -0.88526245	     15.05396749	      0.26274130	     17.75763567	    -17.93361551	      0.00000000	     -0.00189854	     -0.15363232	     -0.50214922	     -0.00352577	     -0.20433099	     -0.53353355	     -0.00311910	     -0.37354163	     -0.53353355	     -0.00216984	     -0.37354163	     -0.43938057	     -0.00176298	     -0.31328703	     -0.40799624	     -0.00108482	     -0.23797647	     -0.37661192	     -0.01356105	     -1.73791956	     -2.79280334	      0.00000000	      0.00000000	      0.00000000	      0.00000000	      0.00000000	     -0.83525203	    -13.30851129	     45.91930421	     23.18060957	     60.85385206	      0.00000000	      4.95219317	    -16.24438571	     -6.20097861	     11.67606263	     24.61673018	     58.54767168	      0.00000000	      4.95219317
      0.30000000	      6.75657305	     -0.13486807	   -184.60405421	      2.55377023	      0.88757561	      0.67078783	     14.54805766	     -1.79126260	     -6.80473326	     22.02300914	      0.38437402	     22.39499026	     -5.76260329	      0.00000000	      8.75411764	     -1.40889941	     -0.10158774	     14.84182907	      0.25903878	     17.43824084	    -17.64389093	      0.00000000	     -0.00296672	     -0.14060798	     -0.55811710	     -0.00550950	     -0.18700862	     -0.59299942	     -0.00487403	     -0.34187425	     -0.59299942	     -0.00339067	     -0.34187425	     -0.48835246	     -0.00275490	     -0.28672780	     -0.45347014	     -0.00169519	     -0.21780177	     -0.41858782	     -0.02119101	     -1.59058563	     -3.10407986	      0.00000000	      0.00000000	      0.00000000	      0.00000000	      0.00000000	      0.05012644	    -14.04131123	     51.87959632	     23.36733484	     61.88278714	      0.00000000	      4.95984745	    -16.24701938	     -6.11848481	     11.50257357	     24.36245212	     58.16184205	      0.00000000	      4.95984745
